Patient4_TMGait_0pt4_03_left_08_EMG.mot
version=1
nRows=33
nColumns=33
inDegrees=no
endheader
time	1LAddLong	2LGlutMax	3LGlutMed	4LIliopsoas	5LSemiMemb	6LBicFemLong	7LRecFem	8LVastMed	9LVastLat	10LGasMed	11LTibAnt	12lTibPost	13LPeroneusLong	14LSol	15LExtDigLong	16LFlexDigLong	17RAddLong	18RGlutMax	19RGlutMed	20RIliopsoas	21RSemiMemb	22RBicFemLong	23RRecFem	24RVastMed	25RVastLat	26RGasMed	27RTibAnt	28RTibPost	29RPeroneusLong	30RSol	31RExtDigLong	32RFlexDigLong
10.52	0.017242	0.28214	0.071411	0.003357	0.019379	0.15945	-0.33829	0.019379	-0.057526	0.052795	0.038757	0.011292	-0.072937	-0.036011	0.12192	-0.37537	-0.008392	0.46814	-0.023193	-0.028687	0.018311	-0.013733	0.42938	-0.091095	-0.018921	0.00061	-0.068359	-0.004578	0.11124	-0.14252	0.000763	-0.01297
10.521	0.002136	0.31128	0.068207	-0.021362	-0.002747	0.14893	-0.45853	0.009308	0.033264	0.037079	0.030212	0.00946	-0.077667	-0.044556	0.17929	0.048828	-0.03418	0.439	-0.11963	-0.056	0.035706	-0.019379	0.39459	-0.093536	-0.043335	0.002899	0.31418	-0.005341	0.088501	-0.16815	-0.001068	-0.016022
10.522	0.015717	0.2832	0.032196	-0.015869	-0.036316	0.14236	-0.47195	0.023956	0.10788	0.045166	0.036163	0.007782	-0.090637	-0.017242	0.16129	0.087128	-0.027771	0.43518	-0.14114	-0.060272	0.021973	-0.01297	0.40222	-0.066986	-0.037537	0.000916	-0.57465	-0.002747	0.030212	-0.10941	-0.001373	-0.021515
10.523	0.008698	0.26977	-0.047607	0.000305	-0.067444	-0.013885	-0.41946	0.019531	0.1149	0.050659	0.053253	0.003204	-0.10254	0.022736	0.12405	0.047302	-0.029907	0.4187	0.045929	0.005188	0.029755	-0.012054	0.40695	-0.10941	-0.036011	0.006866	-0.44479	-0.001984	0.10559	-0.13748	-0.000458	-0.018921
10.524	0.015411	0.21866	-0.032196	-0.008392	-0.04303	-0.23544	-0.41626	0.00351	0.14236	0.052948	0.055847	-0.002594	-0.1059	0.031891	0.059357	0.023499	-0.02243	0.38895	0.054474	0.093536	0.027313	-0.001373	0.38162	-0.068054	-0.040283	0.001373	-0.23651	-0.002594	0.057983	-0.05249	-0.004272	-0.00946
10.525	0.010223	0.19379	-0.049286	0.005646	0.039368	-0.16571	-0.37445	-0.005798	0.07431	0.042725	0.004883	-0.005188	-0.11063	0.0354	0.029907	0.009613	-0.032806	0.4097	0.12573	0.10742	0.022583	-0.023804	0.36652	-0.03067	-0.023804	-0.010529	-0.11322	-0.005341	0.015259	0.10651	-0.002289	-0.010834
10.526	-0.000153	0.19318	0.001526	0.01297	0.028076	-0.044403	-0.35233	-0.007935	0.033264	0.046387	-0.032501	-0.010071	-0.11444	0.030823	-0.003662	0.017395	-0.04776	0.36758	-0.20111	0.086365	0.03952	0.004272	0.29831	-0.024414	-0.006104	-0.006714	0.2449	-0.009613	-0.00351	0.10178	-0.004578	-0.011902
10.527	0.001526	0.19226	0.06485	-0.006714	-0.029449	-0.005035	-0.36972	0.005188	-0.002594	0.041962	-0.019836	-0.002594	-0.09491	0.074158	-0.004578	-0.005493	-0.046387	0.36865	-0.38773	0.092163	0.049133	0.009155	0.3035	-0.032806	-0.01709	0.003204	0.031281	-0.005035	-0.009766	0.031281	-0.005951	-0.009918
10.528	0.010529	0.25787	0.07782	0.000305	-0.032196	-0.035095	-0.37842	0.00946	0.043335	0.049591	0.01297	-0.005341	-0.012054	0.11932	-0.00473	0.000305	-0.042419	0.39993	-0.37628	0.098419	0.047302	0.028839	0.29739	0.006561	-0.023651	0.005493	-0.072327	-0.005341	0.005493	0.00946	-0.002289	-0.012054
10.529	0.002441	0.2504	-0.094604	0.001526	-0.005493	0.022736	-0.4274	0.018158	0.1712	0.067902	0.015869	-0.013428	0.007477	0.11917	0.004425	-0.001831	-0.041046	0.39444	-0.26382	0.041199	0.057983	0.028687	0.28107	0.006409	-0.022736	0.001678	-0.011902	-0.000763	-0.002289	-0.000763	-0.000305	-0.007782
10.53	-0.001678	0.22766	-0.10361	-0.016632	-0.045624	0.052338	-0.45639	0.031433	0.23193	0.052795	0.021057	-0.00885	-0.12711	0.057678	0.015869	-0.007324	-0.021362	0.34729	-0.16846	-0.055695	0.053101	0.026855	0.34576	-0.003357	-0.00412	0.005798	-0.025024	-0.006714	0.027313	0.018158	0.000458	-0.009155
10.531	-0.006866	0.22751	-0.028992	-0.028839	-0.10834	0.11307	-0.47165	0.028992	0.24368	0.046082	0.041962	-0.015106	-0.021515	-0.063171	0.015259	-0.01297	-0.020447	0.33005	-0.11597	-0.121	0.038147	0.041046	0.34897	0.008392	-0.021667	-0.006866	-0.16388	-0.002136	0.077667	0.041351	0.000153	-0.014343
10.532	-0.00061	0.18036	-0.081787	0.019836	-0.0737	0.19134	-0.43076	-0.034485	0.27374	0.041504	0.14282	-0.010071	-0.060883	-0.15411	-0.026245	-0.013275	0.001831	0.29785	-0.11383	-0.16327	0.030365	0.039215	0.36194	-0.016785	-0.036316	-0.004883	-0.023041	-0.004578	0.048218	0.046387	-0.00351	-0.013123
10.533	0.014191	0.17212	0.000153	0.004578	0.014954	0.19073	-0.34729	-0.049286	0.30228	0.027008	0.20462	-0.006561	-0.08255	-0.11185	0.14252	-0.012054	0.019989	0.28809	-0.16769	-0.1384	0.035706	0.053558	0.37476	-0.034332	-0.028534	-0.002289	-0.001678	0.009766	0.019226	0.038605	-0.001678	-0.020905
10.534	0.001831	0.1973	0.19577	0.017548	0.066376	0.21851	-0.29602	0.001831	0.067749	0.000458	0.1915	-0.003815	-0.30212	-0.052338	0.99274	-0.019836	0.037384	0.31616	-0.19836	-0.096893	0.036011	0.047302	0.37811	-0.045319	-0.050049	-0.000153	-0.013123	-0.008698	0.050354	-0.01358	-0.001068	-0.020294
10.535	-0.010834	0.11231	0.17303	0.007629	0.012512	0.21149	-0.23941	-0.014191	-0.12634	-0.012207	0.083466	-0.011139	0.28107	0.17303	-0.11368	-0.01236	0.046692	0.32196	-0.16373	-0.11154	0.036621	0.03952	0.4097	-0.068665	-0.045471	-0.00061	0.023193	-0.004425	0.054779	0.001831	-0.002136	-0.023499
10.536	-0.015869	0.072021	0.17258	0.011139	-0.035095	0.098724	-0.19608	-0.014954	-0.15686	-0.020447	-0.17349	-0.017853	0.27054	0.31082	-0.20538	-0.007324	0.039063	0.34759	-0.16159	-0.14008	0.018158	0.027313	0.34851	-0.1033	-0.055084	0.002747	0.02243	-0.00412	0.026245	0.005188	-0.00061	-0.022125
10.537	-0.038452	0.027771	0.080414	0.010986	-0.077515	-0.25284	-0.23621	-0.001068	-0.15472	0.00885	-0.12421	-0.014496	-0.024261	0.33966	0.16251	-0.024414	0.029907	0.37003	-0.24384	-0.11246	0.017853	0.023499	0.31555	-0.073242	-0.045776	0.009155	0.029449	-0.003052	0.029449	0.021362	-0.00885	-0.024109
10.538	-0.029907	-0.011139	0.012665	0.010834	-0.073242	-0.41916	-0.24384	0.007477	-0.071869	0.018463	-0.21988	-0.016785	0.16235	0.25207	-0.31601	-0.022125	0.018616	0.3595	-0.15915	-0.079041	0.015869	0.044098	0.31342	-0.057068	-0.038452	0.005188	0.044098	-0.003052	0.012817	0.026245	0.000305	-0.022125
10.539	-0.014954	-0.018921	0.033722	0.02594	0.028992	-0.46371	-0.20111	0.005188	-0.066071	-0.027008	-0.35477	-0.010834	0.42313	0.15396	-0.60333	-0.015717	0.038605	0.3981	-0.2095	0.023804	0.028687	0.057831	0.29816	-0.077209	-0.043793	-0.001068	0.036011	-0.003204	-0.019684	0.036926	-0.000153	-0.022278
10.54	-0.006714	-0.006104	-0.001221	0.019226	0.027618	-0.25986	-0.10254	0.015411	-0.073547	-0.041351	-0.28839	-0.015564	0.40741	0.1059	-0.71671	-0.011749	0.0737	0.3865	-0.27176	0.14816	0.022736	0.034943	0.37293	-0.02533	-0.032959	0.000458	0.029907	-0.004272	-0.060272	0.056915	0.006714	-0.018311
10.541	0.005951	0.030975	0.12909	0.010529	0.01709	-0.082092	-0.14679	0.023804	0.018768	-0.050201	-0.15564	-0.020447	0.033722	0.18921	0.046387	-0.001984	0.094147	0.3624	-0.26367	0.24841	0.010529	0.021973	0.383	-0.072784	-0.055084	-0.00412	0.040894	-0.013885	-0.19699	0.089722	-0.001373	-0.020447
10.542	0.020905	-0.041046	0.083923	-0.008698	0.06546	-0.058746	-0.16571	0.01358	0.02182	-0.058441	0.040283	-0.018616	-0.34805	0.22354	-0.28351	0.002136	0.071564	0.3418	-0.17822	0.30487	-0.002441	0.036163	0.29907	-0.089569	-0.036163	-0.015106	0.046692	-0.004425	-0.29312	0.03952	-0.002899	-0.018921
10.543	0.007324	-0.092163	-0.00351	0.01297	-0.000916	0.071106	-0.32684	0.021973	0.014343	-0.062714	0.15564	-0.026703	-0.44662	0.19928	0.10529	0.008392	0.046539	0.29221	-0.17777	0.31036	-0.000305	0.048676	0.28381	-0.006561	-0.024261	-0.024414	0.043335	-0.003052	-0.22324	-0.056915	-0.002747	-0.017242
10.544	-0.005188	-0.032501	0.007019	0.001373	-0.005035	0.13473	-0.4068	0.027008	0.013428	-0.029907	0.074158	-0.015564	-0.27435	0.084686	0.071106	-0.000916	0.012207	0.31967	-0.16342	0.28824	0.021515	0.066833	0.25391	0.019379	-0.011139	-0.014191	0.004578	-0.007935	-0.015869	-0.092621	-0.003052	-0.011444
10.545	0.005188	-0.013733	0.016785	0.009308	0.000916	0.057831	-0.4895	0.010376	0.12009	-0.032806	-0.024719	-0.024414	0.14679	0.007172	-0.039368	-0.002289	0.000916	0.33646	-0.11673	0.2594	0.037842	0.069885	0.29205	0.032349	-0.007324	-0.016937	-0.036621	-0.002747	0.14099	-0.048065	-0.00412	-0.010223
10.546	0.016479	-0.089874	-0.046692	0.006104	0.000916	-0.032959	-0.40527	-0.040588	0.15808	0.010223	0.019073	-0.021515	-0.15457	-0.23422	-0.10208	-0.011139	-0.004883	0.32257	-0.13687	0.21179	0.038605	0.093536	0.28686	0.081635	-0.009003	-0.007324	-0.012817	0.006104	0.23086	-0.038605	-0.001221	-0.013428
10.547	0.010376	-0.17822	-0.083618	-0.018768	-0.009308	-0.10849	-0.31967	-0.05661	0.071716	0.014038	0.037231	-0.020599	-0.011292	-0.16068	0.042572	-0.009613	-0.001068	0.34012	-0.20126	0.12863	0.035858	0.066528	0.34088	0.10208	-0.010376	0	0.012207	-0.002899	0.22201	-0.092926	-0.003815	-0.021057
10.548	0.019073	-0.20935	-0.066071	-0.018005	-0.037689	-0.097198	-0.27481	-0.032501	-0.026703	-0.006104	0.049591	-0.020447	0.2919	-0.092163	0.11734	0.002899	-0.012817	0.36606	-0.16968	0.021515	0.047455	0.064545	0.28259	0.068207	-0.016479	-0.003204	0.036621	-0.002899	0.15305	-0.10071	-0.003052	-0.024567
10.549	0.017395	-0.20416	-0.06012	0.016174	-0.002441	-0.004578	-0.33096	0.003815	-0.033875	-0.004883	0.063171	-0.022888	-0.13901	-0.067596	0.079803	0.001068	0.001373	0.44479	0.040131	-0.048828	0.050354	0.090485	0.33203	0.03952	-0.020142	-0.015717	0.027466	-0.00412	0.053101	-0.02243	-0.002747	-0.026245
10.55	0.016022	-0.20966	-0.033417	0.01297	0.028687	0.019073	-0.31052	0.020294	0.029602	0.028229	0.018463	-0.020905	-0.27954	-0.07431	-0.077209	-0.003357	0.024872	0.48492	0.18173	-0.14633	0.048828	0.073547	0.35812	0.067291	-0.012665	-0.016632	0.044403	-0.005188	-0.009308	0.068054	0	-0.026093
10.551	0.016632	-0.21316	-0.033112	0.019379	0.019836	0.008545	-0.26413	0.016785	0.1445	0.000305	-0.020447	-0.012665	-0.20477	-0.084686	-0.11337	0.001831	0.041809	0.53162	-0.037689	-0.10346	0.048981	0.070496	0.38284	0.034332	-0.027313	-0.01358	0.049286	-0.005493	0.029449	0.063019	-0.000763	-0.01709
10.552	0.015411	-0.25971	-0.15762	0.011902	-0.023956	0.028076	-0.18723	-0.015564	0.23727	-0.031891	-0.035248	-0.019989	-0.12817	-0.059509	-0.018005	0.004883	0.10574	0.55969	-0.35324	-0.10254	0.05722	0.072327	0.36514	0.0354	-0.019531	-0.018158	0.03891	-0.003662	0.020905	-0.043335	-0.004883	-0.018921
